HIERARCHY
ROOT Hips
{
	OFFSET 0.000000 100.481300 0.000000
	CHANNELS 6 Xposition Yposition Zposition Xrotation Yrotation Zrotation
	JOINT Spine
	{
		OFFSET -0.279200 12.230698 -2.892100
		CHANNELS 3 Xrotation Yrotation Zrotation
		JOINT Spine1
		{
			OFFSET -0.325700 14.269203 -3.374200
			CHANNELS 3 Xrotation Yrotation Zrotation
			JOINT Spine2
			{
				OFFSET -0.372300 16.307602 -0.352600
				CHANNELS 3 Xrotation Yrotation Zrotation
				JOINT Neck
				{
					OFFSET -0.418800 17.814194 8.416900
					CHANNELS 3 Xrotation Yrotation Zrotation
					JOINT Head
					{
						OFFSET 0.000000 7.031097 3.806800
						CHANNELS 3 Xrotation Yrotation Zrotation
						JOINT HeadTop_End
						{
							OFFSET 0.000000 24.646606 12.978600
							CHANNELS 3 Xrotation Yrotation Zrotation
							End Site
							{
								OFFSET 0.000000 27.854965 0.000000
							}
						}
					}
				}
				JOINT LeftShoulder
				{
					OFFSET 16.952999 14.495407 -7.737500
					CHANNELS 3 Xrotation Yrotation Zrotation
					JOINT LeftArm
					{
						OFFSET 9.308998 -2.777710 0.208600
						CHANNELS 3 Xrotation Yrotation Zrotation
						JOINT LeftForeArm
						{
							OFFSET 29.972298 0.000000 0.000000
							CHANNELS 3 Xrotation Yrotation Zrotation
							JOINT LeftHand
							{
								OFFSET 26.026505 0.000000 0.000000
								CHANNELS 3 Xrotation Yrotation Zrotation
								JOINT LeftHandThumb1
								{
									OFFSET 12.240501 -7.147949 9.207150
									CHANNELS 3 Xrotation Yrotation Zrotation
									JOINT LeftHandThumb2
									{
										OFFSET 4.138618 -2.389435 2.389433
										CHANNELS 3 Xrotation Yrotation Zrotation
										JOINT LeftHandThumb3
										{
											OFFSET 2.726913 -1.574387 1.574386
											CHANNELS 3 Xrotation Yrotation Zrotation
											JOINT LeftHandThumb4
											{
												OFFSET 3.941010 -2.275345 2.275342
												CHANNELS 3 Xrotation Yrotation Zrotation
												End Site
												{
													OFFSET -0.005798 5.087799 0.009903
												}
											}
										}
									}
								}
								JOINT LeftHandIndex1
								{
									OFFSET 24.424698 -1.985611 5.953459
									CHANNELS 3 Xrotation Yrotation Zrotation
									JOINT LeftHandIndex2
									{
										OFFSET 6.426697 0.000000 0.000000
										CHANNELS 3 Xrotation Yrotation Zrotation
										JOINT LeftHandIndex3
										{
											OFFSET 5.337898 0.000000 0.000000
											CHANNELS 3 Xrotation Yrotation Zrotation
											JOINT LeftHandIndex4
											{
												OFFSET 4.409401 0.000000 0.000000
												CHANNELS 3 Xrotation Yrotation Zrotation
												End Site
												{
													OFFSET 0.000000 4.409363 0.014373
												}
											}
										}
									}
								}
								JOINT LeftHandMiddle1
								{
									OFFSET 23.810104 0.000000 0.000000
									CHANNELS 3 Xrotation Yrotation Zrotation
									JOINT LeftHandMiddle2
									{
										OFFSET 7.176498 0.000000 0.000000
										CHANNELS 3 Xrotation Yrotation Zrotation
										JOINT LeftHandMiddle3
										{
											OFFSET 6.774902 0.000000 0.000000
											CHANNELS 3 Xrotation Yrotation Zrotation
											JOINT LeftHandMiddle4
											{
												OFFSET 5.403328 0.000000 0.000000
												CHANNELS 3 Xrotation Yrotation Zrotation
												End Site
												{
													OFFSET -0.027702 5.403244 0.017414
												}
											}
										}
									}
								}
								JOINT LeftHandRing1
								{
									OFFSET 22.908401 -0.839279 -6.020567
									CHANNELS 3 Xrotation Yrotation Zrotation
									JOINT LeftHandRing2
									{
										OFFSET 6.337502 0.000000 0.000000
										CHANNELS 3 Xrotation Yrotation Zrotation
										JOINT LeftHandRing3
										{
											OFFSET 5.779297 0.000000 0.000000
											CHANNELS 3 Xrotation Yrotation Zrotation
											JOINT LeftHandRing4
											{
												OFFSET 4.965698 0.000000 0.000000
												CHANNELS 3 Xrotation Yrotation Zrotation
												End Site
												{
													OFFSET 0.000000 4.965668 0.016186
												}
											}
										}
									}
								}
								JOINT LeftHandPinky1
								{
									OFFSET 20.037003 -1.530319 -10.950146
									CHANNELS 3 Xrotation Yrotation Zrotation
									JOINT LeftHandPinky2
									{
										OFFSET 5.254700 0.000000 0.000000
										CHANNELS 3 Xrotation Yrotation Zrotation
										JOINT LeftHandPinky3
										{
											OFFSET 4.810204 0.000000 0.000000
											CHANNELS 3 Xrotation Yrotation Zrotation
											JOINT LeftHandPinky4
											{
												OFFSET 3.647202 0.000000 0.000000
												CHANNELS 3 Xrotation Yrotation Zrotation
												End Site
												{
													OFFSET 0.000000 3.647186 0.011889
												}
											}
										}
									}
								}
							}
						}
					}
				}
				JOINT RightShoulder
				{
					OFFSET -15.141001 14.495407 -7.737500
					CHANNELS 3 Xrotation Yrotation Zrotation
					JOINT RightArm
					{
						OFFSET -9.308998 -2.777710 0.208500
						CHANNELS 3 Xrotation Yrotation Zrotation
						JOINT RightForeArm
						{
							OFFSET -29.972300 0.000000 0.000000
							CHANNELS 3 Xrotation Yrotation Zrotation
							JOINT RightHand
							{
								OFFSET -26.026505 0.000000 0.000000
								CHANNELS 3 Xrotation Yrotation Zrotation
								JOINT RightHandThumb1
								{
									OFFSET -12.240601 -7.148026 9.207092
									CHANNELS 3 Xrotation Yrotation Zrotation
									JOINT RightHandThumb2
									{
										OFFSET -4.138618 -2.389435 2.389433
										CHANNELS 3 Xrotation Yrotation Zrotation
										JOINT RightHandThumb3
										{
											OFFSET -2.726974 -1.574417 1.574421
											CHANNELS 3 Xrotation Yrotation Zrotation
											JOINT RightHandThumb4
											{
												OFFSET -3.941010 -2.275345 2.275343
												CHANNELS 3 Xrotation Yrotation Zrotation
												End Site
												{
													OFFSET 0.005814 5.087799 0.009927
												}
											}
										}
									}
								}
								JOINT RightHandIndex1
								{
									OFFSET -24.424698 -1.985657 5.953444
									CHANNELS 3 Xrotation Yrotation Zrotation
									JOINT RightHandIndex2
									{
										OFFSET -6.426697 0.000000 0.000000
										CHANNELS 3 Xrotation Yrotation Zrotation
										JOINT RightHandIndex3
										{
											OFFSET -5.337898 0.000000 0.000000
											CHANNELS 3 Xrotation Yrotation Zrotation
											JOINT RightHandIndex4
											{
												OFFSET -4.409401 0.000000 0.000000
												CHANNELS 3 Xrotation Yrotation Zrotation
												End Site
												{
													OFFSET 0.000000 4.409363 0.014408
												}
											}
										}
									}
								}
								JOINT RightHandMiddle1
								{
									OFFSET -23.810097 0.000000 0.000000
									CHANNELS 3 Xrotation Yrotation Zrotation
									JOINT RightHandMiddle2
									{
										OFFSET -7.176498 0.000000 0.000000
										CHANNELS 3 Xrotation Yrotation Zrotation
										JOINT RightHandMiddle3
										{
											OFFSET -6.774902 0.000000 0.000000
											CHANNELS 3 Xrotation Yrotation Zrotation
											JOINT RightHandMiddle4
											{
												OFFSET -5.403328 0.000000 0.000000
												CHANNELS 3 Xrotation Yrotation Zrotation
												End Site
												{
													OFFSET 0.027702 5.403244 0.017457
												}
											}
										}
									}
								}
								JOINT RightHandRing1
								{
									OFFSET -22.908302 -0.839325 -6.020576
									CHANNELS 3 Xrotation Yrotation Zrotation
									JOINT RightHandRing2
									{
										OFFSET -6.337502 0.000000 0.000000
										CHANNELS 3 Xrotation Yrotation Zrotation
										JOINT RightHandRing3
										{
											OFFSET -5.779297 0.000000 0.000000
											CHANNELS 3 Xrotation Yrotation Zrotation
											JOINT RightHandRing4
											{
												OFFSET -4.965698 0.000000 0.000000
												CHANNELS 3 Xrotation Yrotation Zrotation
												End Site
												{
													OFFSET 0.000000 4.965668 0.016226
												}
											}
										}
									}
								}
								JOINT RightHandPinky1
								{
									OFFSET -20.037003 -1.530334 -10.950259
									CHANNELS 3 Xrotation Yrotation Zrotation
									JOINT RightHandPinky2
									{
										OFFSET -5.254700 0.000000 0.000000
										CHANNELS 3 Xrotation Yrotation Zrotation
										JOINT RightHandPinky3
										{
											OFFSET -4.810204 0.000000 0.000000
											CHANNELS 3 Xrotation Yrotation Zrotation
											JOINT RightHandPinky4
											{
												OFFSET -3.647202 0.000000 0.000000
												CHANNELS 3 Xrotation Yrotation Zrotation
												End Site
												{
													OFFSET 0.000000 3.647186 0.011917
												}
											}
										}
									}
								}
							}
						}
					}
				}
			}
		}
	}
	JOINT LeftUpLeg
	{
		OFFSET 15.427100 -6.655098 0.678600
		CHANNELS 3 Xrotation Yrotation Zrotation
		JOINT LeftLeg
		{
			OFFSET 4.081073 -39.591068 13.024000
			CHANNELS 3 Xrotation Yrotation Zrotation
			JOINT LeftFoot
			{
				OFFSET -4.081074 -37.707932 -15.979700
				CHANNELS 3 Xrotation Yrotation Zrotation
				JOINT LeftToeBase
				{
					OFFSET 5.346399 -15.068900 20.645000
					CHANNELS 3 Xrotation Yrotation Zrotation
					JOINT LeftToe_End
					{
						OFFSET 2.754700 0.931300 11.300900
						CHANNELS 3 Xrotation Yrotation Zrotation
						End Site
						{
							OFFSET 0.000000 11.669021 0.000000
						}
					}
				}
			}
		}
	}
	JOINT RightUpLeg
	{
		OFFSET -15.569500 -6.655098 0.678600
		CHANNELS 3 Xrotation Yrotation Zrotation
		JOINT RightLeg
		{
			OFFSET -4.081825 -39.591045 13.023800
			CHANNELS 3 Xrotation Yrotation Zrotation
			JOINT RightFoot
			{
				OFFSET 4.081824 -37.707954 -15.979600
				CHANNELS 3 Xrotation Yrotation Zrotation
				JOINT RightToeBase
				{
					OFFSET -5.346400 -15.068900 20.645000
					CHANNELS 3 Xrotation Yrotation Zrotation
					JOINT RightToe_End
					{
						OFFSET -2.754700 0.931300 11.300900
						CHANNELS 3 Xrotation Yrotation Zrotation
						End Site
						{
							OFFSET 0.000000 11.669021 0.000000
						}
					}
				}
			}
		}
	}
}
MOTION
Frames: 4
Frame Time: 0.033333
2.300104 90.478333 -2.824242 -9.751584 -9.121732 -4.607019 6.626644 0.837529 -0.647315 13.244086 1.498564 -0.442127 13.244085 1.498567 -0.442126 -15.136558 2.462072 0.189354 0.148426 7.546927 -1.612251 0.000000 -0.000000 0.000000 6.861381 -0.616847 -10.734960 -6.570071 -15.380106 -50.362308 1.505127 -57.471131 4.034764 4.660869 -2.741184 5.649308 14.263423 8.552824 2.318540 -1.482776 6.568325 0.316945 0.000003 -0.000005 0.000003 0.000000 0.000001 -0.000003 0.677230 5.652195 -35.469336 3.082963 -0.993518 -34.011132 -0.000000 0.000006 -0.000003 -0.000003 0.000001 -0.000002 -1.571034 3.922675 -39.914755 -1.411350 -3.014781 -43.899111 0.000003 0.000001 -0.000000 0.000000 -0.000002 -0.000000 -4.329299 -0.088475 -40.531961 -5.387643 -4.592662 -60.447085 0.000002 0.000001 0.000002 -0.000000 -0.000000 0.000002 -5.261109 0.204835 -44.309496 -5.771069 -6.292047 -66.503817 -0.000001 0.000002 -0.000001 -0.000002 0.000003 -0.000001 6.590756 11.475127 2.751261 -0.854855 21.107416 66.584461 -0.460621 39.734151 -0.113236 17.627468 5.857842 -23.140128 4.578831 -1.120763 -0.517579 -1.832600 -6.382962 -0.725898 0.000001 -0.000009 -0.000004 -0.000003 -0.000003 0.000002 -1.887938 -7.206701 25.097202 4.517210 0.514867 39.139194 -0.000002 0.000012 -0.000007 0.000000 0.000001 -0.000001 -1.873356 -4.250594 38.674140 -13.801792 -15.706227 50.222289 0.000001 -0.000003 -0.000001 -0.000003 -0.000004 0.000002 -1.444266 0.863066 41.380657 -5.111743 5.243758 51.142319 0.000003 0.000009 -0.000006 0.000003 0.000003 -0.000002 -4.950554 -0.326968 46.943060 -8.502148 8.776476 61.872607 -0.000000 0.000002 -0.000001 -0.000001 -0.000002 -0.000001 -19.990765 12.595969 8.615140 28.737864 -0.332680 -0.990732 -2.867068 8.226223 3.448096 -2.122414 -0.026488 0.067610 0.000000 0.000000 -0.000000 -4.705222 -4.477296 -0.754223 29.679392 -1.899710 1.218119 -14.741193 -8.600435 1.957294 -0.273624 -0.185656 0.445242 -0.000000 0.000003 -0.000000 
1.630959 90.707108 -3.166169 -9.866750 -8.411673 -4.104192 6.450110 0.860120 -0.623491 12.888187 1.552501 -0.286473 12.888186 1.552500 -0.286474 -15.595335 2.240333 0.348322 0.247879 6.934805 -0.865665 -0.000001 0.000000 -0.000000 7.317744 0.087163 -10.404388 -5.561817 -15.982772 -50.450345 1.460434 -57.268028 3.937473 3.537548 1.180566 6.994495 14.136365 8.746189 2.328761 -1.500752 6.528399 0.308081 -0.000003 -0.000002 0.000006 0.000002 -0.000003 -0.000000 0.688247 5.600581 -35.574508 3.084000 -0.991934 -33.968409 -0.000003 0.000003 -0.000003 0.000002 0.000000 -0.000002 -1.578269 3.852274 -39.874788 -1.416105 -3.013101 -44.031375 0.000004 0.000003 -0.000001 -0.000001 -0.000002 -0.000002 -4.409821 -0.149343 -40.474885 -5.398656 -4.581986 -60.668404 0.000000 0.000002 0.000000 -0.000004 0.000000 0.000000 -5.338207 0.139408 -44.328085 -5.776312 -6.286859 -66.685678 -0.000005 -0.000000 0.000000 -0.000003 0.000001 -0.000002 6.956930 11.369962 2.563276 -0.343896 20.310992 66.500095 -0.457245 38.917595 -0.120688 14.226165 5.671448 -24.430275 4.592262 -1.085447 -0.508412 -1.831200 -6.387034 -0.723140 0.000006 -0.000009 -0.000003 0.000003 -0.000004 0.000002 -1.932320 -7.230494 25.003094 4.592807 0.518453 39.058789 -0.000002 0.000011 -0.000006 -0.000002 0.000001 0.000002 -1.855845 -4.258978 38.611360 -13.798842 -15.712321 50.229430 -0.000001 -0.000002 -0.000002 0.000002 -0.000000 0.000001 -1.414946 0.858334 41.276459 -5.107223 5.237952 51.091645 0.000006 0.000007 -0.000005 0.000001 -0.000002 -0.000001 -4.936634 -0.350337 46.846041 -8.482668 8.767212 61.671028 -0.000001 -0.000001 -0.000000 -0.000001 -0.000001 -0.000000 -19.621911 12.904623 8.484166 27.963944 -0.314851 -0.956131 -2.946650 7.173212 3.277412 -2.464712 -0.026565 0.068410 0.000000 0.000000 0.000000 -4.407914 -5.220361 -0.758626 29.414671 -1.937923 1.200116 -14.757245 -8.650797 1.415508 -0.284277 -0.185598 0.445014 -0.000000 0.000001 -0.000000 
1.025150 90.938225 -3.491822 -9.919970 -7.764851 -3.554798 6.272729 0.860890 -0.610664 12.531422 1.560511 -0.174323 12.531410 1.560511 -0.174322 -16.025338 2.027551 0.551466 0.343248 6.427834 -0.320685 -0.000000 -0.000000 -0.000000 7.772801 0.857021 -10.000883 -4.722185 -16.607100 -50.709548 1.400783 -56.703182 3.822133 2.504034 4.636812 8.957912 13.993456 8.912748 2.344523 -1.518575 6.488749 0.299236 -0.000000 0.000001 0.000001 0.000002 0.000003 -0.000000 0.698996 5.549345 -35.678801 3.085034 -0.990339 -33.925990 0.000002 0.000005 -0.000002 -0.000002 0.000000 -0.000000 -1.585349 3.782376 -39.835026 -1.420805 -3.011421 -44.162637 0.000004 0.000003 0.000003 0.000000 0.000003 0.000000 -4.489658 -0.209920 -40.418362 -5.409500 -4.571367 -60.888063 0.000003 0.000005 0.000004 0.000000 -0.000001 0.000000 -5.414780 0.074518 -44.346578 -5.781474 -6.281705 -66.866172 -0.000005 0.000000 0.000000 -0.000002 -0.000001 0.000000 7.316460 11.258497 2.391092 0.043709 19.596467 66.412545 -0.455755 38.176926 -0.126056 11.092815 5.311218 -25.517694 4.603436 -1.055669 -0.500731 -1.830122 -6.390289 -0.720791 0.000007 -0.000008 -0.000002 -0.000000 -0.000000 -0.000002 -1.969626 -7.250407 24.923915 4.656236 0.521329 38.991187 -0.000003 0.000013 -0.000006 0.000004 -0.000001 -0.000000 -1.841159 -4.266092 38.558467 -13.796386 -15.717392 50.235249 -0.000001 -0.000005 -0.000002 -0.000000 -0.000000 0.000000 -1.390324 0.854289 41.188844 -5.103428 5.233074 51.048964 0.000003 0.000005 -0.000006 0.000001 -0.000002 -0.000000 -4.924965 -0.369995 46.764437 -8.466363 8.759380 61.501660 0.000002 0.000001 0.000001 0.000003 0.000002 -0.000000 -19.308576 13.343084 8.369148 27.307349 -0.400434 -0.973247 -3.433112 6.421552 2.922073 -2.716152 -0.026611 0.068999 -0.000000 -0.000001 -0.000000 -4.220877 -5.808298 -0.823047 29.160871 -1.950651 1.182675 -14.748004 -8.800315 0.918627 -0.275058 -0.185651 0.445247 -0.000000 -0.000001 0.000000 
0.460364 91.215935 -3.789425 -9.947921 -7.224501 -2.969820 6.091796 0.854384 -0.611215 12.167914 1.552698 -0.092622 12.167915 1.552700 -0.092621 -16.422278 1.820084 0.759782 0.544667 5.992633 0.047830 0.000000 -0.000000 0.000000 8.230673 1.675398 -9.564964 -4.103988 -17.373215 -51.177296 1.318460 -55.496913 3.679165 1.407532 7.450574 11.367149 13.826378 9.052168 2.352626 -1.536654 6.448575 0.290274 -0.000002 -0.000001 0.000005 0.000002 -0.000001 -0.000001 0.709684 5.497397 -35.784461 3.086099 -0.988735 -33.883001 -0.000003 0.000004 0.000000 0.000000 -0.000000 -0.000002 -1.592417 3.711558 -39.794711 -1.425534 -3.009710 -44.295658 -0.000001 0.000004 0.000000 -0.000000 0.000001 -0.000004 -4.570436 -0.271448 -40.361227 -5.420407 -4.560596 -61.110618 0.000006 0.000002 -0.000001 -0.000000 0.000001 0.000000 -5.492429 0.008856 -44.365422 -5.786695 -6.276489 -67.049044 0.000002 0.000002 -0.000001 0.000001 0.000002 -0.000001 7.675150 11.156836 2.230877 0.354036 19.022850 66.412982 -0.456264 37.608637 -0.128891 8.317007 4.646823 -26.496286 4.612454 -1.031156 -0.494501 -1.829314 -6.392751 -0.718829 0.000007 -0.000009 -0.000005 -0.000001 -0.000001 -0.000000 -2.000143 -7.266610 24.859046 4.708048 0.523600 38.935801 -0.000001 0.000010 -0.000006 0.000002 0.000001 -0.000000 -1.829158 -4.271891 38.515105 -13.794458 -15.721514 50.239784 0.000000 -0.000005 0.000001 0.000000 0.000002 0.000002 -1.370212 0.850955 41.117131 -5.100300 5.229050 51.013867 0.000005 0.000006 -0.000008 0.000005 -0.000001 0.000001 -4.915479 -0.386039 46.697617 -8.453047 8.752944 61.363157 -0.000001 -0.000000 0.000000 0.000001 0.000002 -0.000001 -18.899675 13.892722 8.269408 26.581326 -0.503994 -0.997907 -4.158939 6.230949 2.507308 -2.799087 -0.026606 0.069196 0.000000 -0.000001 -0.000000 -4.051048 -6.370486 -0.966419 28.814727 -1.946079 1.161456 -14.670983 -8.870732 0.457321 -0.255464 -0.185761 0.445334 -0.000000 0.000000 0.000000 
